<?xml version="1.0" encoding="UTF-8"?>
<svg xmlns="http://www.w3.org/2000/svg" xmlns:xlink="http://www.w3.org/1999/xlink" width="213pt" height="59pt" viewBox="0 0 213 59" version="1.1">
<g id="surface1">
<path style=" stroke:none;fill-rule:evenodd;fill:rgb(29.75769%,17.262268%,57.627869%);fill-opacity:1;" d="M 6.898438 14.082031 C 6.898438 15.265625 7.96875 16.238281 9.277344 16.238281 L 58 16.238281 C 59.308594 16.238281 60.378906 15.265625 60.378906 14.082031 L 60.378906 11.050781 C 60.378906 9.867188 59.308594 8.894531 58 8.894531 L 9.277344 8.894531 C 7.96875 8.894531 6.898438 9.867188 6.898438 11.050781 Z M 6.898438 14.082031 "/>
<path style=" stroke:none;fill-rule:evenodd;fill:rgb(29.75769%,17.262268%,57.627869%);fill-opacity:1;" d="M 6.898438 49.925781 C 6.898438 51.050781 7.914062 51.96875 9.152344 51.96875 L 58.125 51.96875 C 59.363281 51.96875 60.378906 51.050781 60.378906 49.925781 L 60.378906 39.152344 C 60.378906 38.027344 59.363281 37.109375 58.125 37.109375 L 9.152344 37.109375 C 7.914062 37.109375 6.898438 38.027344 6.898438 39.152344 Z M 6.898438 49.925781 "/>
<path style=" stroke:none;fill-rule:evenodd;fill:rgb(29.75769%,17.262268%,57.627869%);fill-opacity:1;" d="M 6.898438 30.019531 C 6.898438 31.207031 7.96875 32.175781 9.277344 32.175781 L 58 32.175781 C 59.308594 32.175781 60.378906 31.207031 60.378906 30.019531 L 60.378906 23.324219 C 60.378906 22.140625 59.308594 21.167969 58 21.167969 L 9.277344 21.167969 C 7.96875 21.167969 6.898438 22.140625 6.898438 23.324219 Z M 6.898438 30.019531 "/>
<path style=" stroke:none;fill-rule:nonzero;fill:rgb(39.610291%,38.511658%,38.78479%);fill-opacity:1;" d="M 97.5625 31.59375 C 97.5625 33.75 97.5625 36.574219 100.726562 36.574219 C 103.886719 36.574219 103.886719 33.75 103.886719 31.59375 L 103.886719 27.472656 C 103.886719 25.316406 103.886719 22.488281 101.253906 22.488281 C 97.5625 22.488281 97.5625 24.644531 97.5625 26.65625 Z M 94.449219 21.484375 C 94.449219 20.621094 95.167969 19.949219 96.03125 19.949219 C 96.75 19.949219 97.371094 20.382812 97.5625 21.003906 L 97.996094 21.003906 C 99 19.710938 100.484375 19.710938 101.15625 19.710938 C 107.003906 19.710938 107.003906 23.113281 107.003906 27.425781 L 107.003906 31.640625 C 107.003906 35.953125 107.003906 39.355469 101.445312 39.355469 C 99.863281 39.355469 98.902344 39.066406 97.5625 37.628906 L 97.5625 46.398438 C 97.5625 47.257812 96.84375 47.929688 95.984375 47.929688 C 95.121094 47.929688 94.449219 47.257812 94.449219 46.398438 Z M 94.449219 21.484375 "/>
<path style=" stroke:none;fill-rule:nonzero;fill:rgb(39.610291%,38.511658%,38.78479%);fill-opacity:1;" d="M 113.488281 28.046875 L 119.765625 28.046875 L 119.765625 26.371094 C 119.765625 24.070312 119.667969 22.488281 116.746094 22.488281 C 113.917969 22.488281 113.632812 22.777344 113.488281 28.046875 M 117.320312 39.351562 C 112.386719 39.351562 110.375 37.582031 110.375 32.214844 L 110.375 28.238281 C 110.375 22.105469 111.332031 19.710938 116.746094 19.710938 C 122.445312 19.710938 122.878906 22.25 122.878906 27.28125 L 122.878906 29.292969 C 122.878906 30.15625 122.160156 30.824219 121.296875 30.824219 L 113.488281 30.824219 L 113.488281 32.503906 C 113.488281 35.570312 114.351562 36.574219 117.273438 36.574219 C 118.664062 36.574219 120.050781 36.429688 121.296875 36.09375 C 121.921875 36.238281 122.304688 36.863281 122.304688 37.484375 C 122.304688 38.25 121.824219 38.828125 121.011719 38.921875 C 119.859375 39.164062 118.566406 39.351562 117.320312 39.351562 "/>
<path style=" stroke:none;fill-rule:nonzero;fill:rgb(39.610291%,38.511658%,38.78479%);fill-opacity:1;" d="M 139.253906 37.582031 C 139.253906 38.441406 138.535156 39.113281 137.675781 39.113281 C 136.8125 39.113281 136.140625 38.441406 136.140625 37.582031 L 136.140625 27.855469 C 136.140625 25.269531 136.140625 22.488281 133.265625 22.488281 C 129.769531 22.488281 129.625 23.640625 129.625 26.128906 L 129.625 37.582031 C 129.625 38.441406 128.90625 39.113281 128.042969 39.113281 C 127.183594 39.113281 126.511719 38.441406 126.511719 37.582031 L 126.511719 21.484375 C 126.511719 20.621094 127.230469 19.949219 128.09375 19.949219 C 128.8125 19.949219 129.433594 20.382812 129.625 21.003906 L 130.105469 21.003906 C 131.589844 19.710938 132.929688 19.710938 134.226562 19.710938 C 138.917969 19.710938 139.253906 22.824219 139.253906 26.992188 Z M 139.253906 37.582031 "/>
<path style=" stroke:none;fill-rule:nonzero;fill:rgb(39.610291%,38.511658%,38.78479%);fill-opacity:1;" d="M 158.1875 17.585938 C 158.1875 16.21875 156.972656 15.160156 155.6875 15.160156 C 154.625 15.160156 153.714844 15.84375 153.339844 16.828125 L 149.105469 33.023438 L 144.714844 16.210938 C 144.476562 15.589844 143.902344 15.160156 143.230469 15.160156 C 142.417969 15.160156 141.648438 15.828125 141.648438 16.691406 L 146.871094 36.910156 C 147.300781 38.203125 148.59375 39.113281 150.03125 39.113281 C 151.46875 39.113281 152.765625 38.203125 153.195312 36.910156 L 158.054688 18.097656 C 158.054688 18.097656 158.054688 18.097656 158.054688 18.09375 Z M 158.1875 17.585938 "/>
<path style=" stroke:none;fill-rule:nonzero;fill:rgb(39.610291%,38.511658%,38.78479%);fill-opacity:1;" d="M 178.105469 35.855469 C 178.105469 37.628906 176.714844 39.113281 174.945312 39.113281 C 173.792969 39.113281 172.691406 38.441406 172.214844 37.535156 L 164.402344 22.519531 L 164.402344 37.582031 C 164.402344 38.441406 163.683594 39.113281 162.824219 39.113281 C 161.960938 39.113281 161.289062 38.441406 161.289062 37.582031 L 161.289062 18.367188 C 161.289062 16.644531 162.679688 15.160156 164.402344 15.160156 C 165.554688 15.160156 166.609375 15.78125 167.136719 16.742188 L 174.992188 31.800781 L 174.992188 16.691406 C 174.992188 15.828125 175.664062 15.160156 176.527344 15.160156 C 177.386719 15.160156 178.105469 15.828125 178.105469 16.691406 Z M 178.105469 35.855469 "/>
<path style=" stroke:none;fill-rule:nonzero;fill:rgb(39.610291%,38.511658%,38.78479%);fill-opacity:1;" d="M 184.855469 28.046875 L 191.128906 28.046875 L 191.128906 26.371094 C 191.128906 24.070312 191.035156 22.488281 188.113281 22.488281 C 185.285156 22.488281 184.996094 22.777344 184.855469 28.046875 M 188.6875 39.351562 C 183.75 39.351562 181.738281 37.582031 181.738281 32.214844 L 181.738281 28.238281 C 181.738281 22.105469 182.699219 19.710938 188.113281 19.710938 C 193.8125 19.710938 194.242188 22.25 194.242188 27.28125 L 194.242188 29.292969 C 194.242188 30.15625 193.523438 30.824219 192.664062 30.824219 L 184.855469 30.824219 L 184.855469 32.503906 C 184.855469 35.570312 185.714844 36.574219 188.636719 36.574219 C 190.027344 36.574219 191.417969 36.429688 192.664062 36.09375 C 193.285156 36.238281 193.667969 36.863281 193.667969 37.484375 C 193.667969 38.25 193.1875 38.828125 192.375 38.921875 C 191.226562 39.164062 189.929688 39.351562 188.6875 39.351562 "/>
<path style=" stroke:none;fill-rule:nonzero;fill:rgb(39.610291%,38.511658%,38.78479%);fill-opacity:1;" d="M 199.148438 15.78125 C 199.148438 14.917969 199.820312 14.25 200.683594 14.25 C 201.546875 14.25 202.265625 14.917969 202.265625 15.78125 L 202.265625 19.949219 L 204.226562 19.949219 C 204.898438 19.949219 205.519531 20.574219 205.519531 21.339844 C 205.519531 22.058594 204.898438 22.726562 204.132812 22.726562 L 202.265625 22.726562 L 202.265625 33.316406 C 202.265625 35.183594 202.40625 36.144531 204.179688 36.335938 C 204.945312 36.335938 205.570312 36.957031 205.570312 37.726562 C 205.570312 38.445312 204.945312 39.113281 204.179688 39.113281 C 200.394531 38.96875 199.148438 37.582031 199.148438 33.316406 L 199.148438 22.726562 L 197.570312 22.726562 C 196.800781 22.726562 196.179688 22.058594 196.179688 21.339844 C 196.179688 20.574219 196.800781 19.949219 197.570312 19.949219 L 199.148438 19.949219 Z M 199.148438 15.78125 "/>
<path style=" stroke:none;fill-rule:nonzero;fill:rgb(39.610291%,38.511658%,38.78479%);fill-opacity:1;" d="M 77.363281 23.871094 L 77.363281 30.3125 C 77.363281 34.929688 77.488281 36.5625 81.71875 36.5625 C 85.953125 36.5625 86.109375 34.929688 86.109375 30.3125 L 86.109375 23.871094 C 86.109375 19.253906 86.046875 17.617188 81.71875 17.617188 C 77.390625 17.617188 77.363281 19.253906 77.363281 23.871094 M 72.40625 30.410156 L 72.40625 23.773438 C 72.40625 18.386719 74.4375 14.828125 82.179688 14.828125 C 89.921875 14.828125 91.035156 18.386719 91.035156 23.773438 L 91.035156 30.410156 C 91.035156 35.796875 89.96875 39.351562 82.179688 39.351562 C 74.390625 39.351562 72.40625 35.796875 72.40625 30.410156 "/>
</g>
</svg>
